<svg width="0" height="0" style="position:absolute">
    <defs>
        <symbol id="1-01">
            <rect x="5" y="9" fill-rule="evenodd" clip-rule="evenodd" fill="none" stroke="#E64117" stroke-width="2" stroke-linecap="round" stroke-miterlimit="10" width="38" height="30"/>
            <g>
                <line fill="none" stroke="#E64117" stroke-width="2" stroke-linejoin="round" stroke-miterlimit="10" x1="39.947" y1="11.796" x2="34.641" y2="17.101"/>
                <line fill="none" stroke="#E64117" stroke-width="2" stroke-linejoin="round" stroke-miterlimit="10" x1="39.947" y1="17.101" x2="34.641" y2="11.796"/>
            </g>
            <line fill="none" stroke="#E64117" stroke-width="2" stroke-linejoin="round" stroke-miterlimit="10" x1="26.646" y1="14.448" x2="31.955" y2="14.448"/>
            <line fill="none" stroke="#E64117" stroke-width="2" stroke-linejoin="round" stroke-miterlimit="10" x1="5" y1="20" x2="43" y2="20"/>
            <g>
                <path fill="#E64117" d="M20.583,23.773c0-0.324,0.145-0.378,0.414-0.378h1.044c0.307,0,0.415,0.054,0.415,0.378
		c0,4.321-0.019,4.375-0.019,7.274c0,3.205-1.423,5.15-4.735,5.15c-1.044,0-2.61-0.198-3.745-0.882
		c-0.162-0.108-0.252-0.18-0.108-0.468l0.469-0.937c0.09-0.18,0.233-0.198,0.432-0.09c0.793,0.378,1.909,0.684,3.007,0.684
		c2.071,0,2.845-1.206,2.845-3.547L20.583,23.773z"/>
                <path fill="#E64117" d="M33.291,33.838c0.307-0.126,0.415,0.036,0.469,0.162l0.378,0.864c0.162,0.324,0.072,0.396-0.09,0.504
		c-1.135,0.685-2.646,0.829-3.854,0.829c-3.421,0-5.438-1.963-5.438-6.32c0-4.015,2.251-6.662,5.582-6.662
		c1.008,0,2.143,0.126,3.349,0.738c0.145,0.072,0.234,0.18,0.09,0.45l-0.45,0.937c-0.09,0.162-0.144,0.234-0.359,0.144
		c-0.738-0.306-1.621-0.522-2.558-0.522c-2.646,0-3.745,2.467-3.745,4.915c0,2.431,0.847,4.574,3.854,4.574
		C31.563,34.45,32.499,34.162,33.291,33.838z"/>
            </g>
        </symbol>
        <symbol id="2-01">
            <path fill="none" stroke="#E64117" stroke-width="2" stroke-miterlimit="10" d="M27.435,10.818
		c-0.289-0.431-0.338-0.984-0.129-1.465c0.719-1.645,0.194-3.565-1.262-4.617c-1.451-1.054-3.441-0.956-4.784,0.241
		c-1.338,1.195-1.662,3.165-0.783,4.727c0.263,0.462,0.265,1.019,0.012,1.486c-0.251,0.46-0.722,0.761-1.251,0.791
		c-3.408,0.199-6.82,0.271-10.234,0.243c-0.014,2.997,0.143,5.996,0.504,8.978c0.06,0.524,0.393,0.985,0.871,1.206
		c0.482,0.224,1.042,0.181,1.483-0.11c1.582-1.048,3.688-0.772,4.95,0.634c1.266,1.411,1.304,3.533,0.096,4.992
		c-1.21,1.456-3.305,1.806-4.92,0.827c-0.453-0.276-1.014-0.298-1.489-0.056c-0.468,0.237-0.782,0.708-0.827,1.233
		c-0.183,2.189-0.268,4.383-0.291,6.581c3.247-0.004,6.496,0.042,9.744,0.152c0.523,0.015,1.004,0.305,1.27,0.76
		c0.262,0.453,0.273,1.011,0.031,1.476c-0.857,1.631-0.432,3.639,1.018,4.783c1.449,1.137,3.502,1.08,4.887-0.136
		c1.381-1.218,1.699-3.25,0.756-4.83c-0.27-0.45-0.29-1.015-0.049-1.482c0.246-0.473,0.713-0.784,1.238-0.826
		c2.687-0.208,5.379-0.315,8.07-0.319c-0.036-1.787-0.115-3.573-0.287-5.354c-0.047-0.509,0.164-1.01,0.561-1.33
		c0.398-0.327,0.934-0.427,1.419-0.273c1.697,0.527,3.54-0.182,4.437-1.719c0.898-1.535,0.619-3.487-0.678-4.706
		c-1.297-1.223-3.264-1.385-4.745-0.397c-0.435,0.298-0.999,0.343-1.481,0.119c-0.48-0.22-0.814-0.674-0.881-1.197
		c-0.406-3.252-0.554-6.525-0.498-9.8c-1.816,0.013-3.635,0.024-5.449,0.066C28.221,11.507,27.728,11.254,27.435,10.818z"/>
        </symbol>
        <symbol id="3-01">
            <path fill="#E64117" d="M12.893,32.946h-8.38c-0.292,0-0.345-0.106-0.345-0.371v-1.035c0-0.265,0.053-0.371,0.345-0.371h3.182
		V17.114l-3.103,0.504c-0.318,0.053-0.397-0.053-0.397-0.318v-0.769c0-0.292,0.079-0.424,0.397-0.531l3.634-1.061
		c0.742-0.212,1.405-0.053,1.405,0.716v15.514h3.262c0.292,0,0.345,0.106,0.345,0.371v1.035
		C13.237,32.84,13.185,32.946,12.893,32.946z"/>
            <path fill="#E64117" d="M16.831,31.329c0-1.22,0.743-2.891,2.36-4.562c1.273-1.326,2.838-2.413,4.058-3.209
		c2.36-1.485,3.395-2.439,3.395-4.031c0-1.91-1.697-2.864-3.978-2.864c-1.38,0-2.918,0.478-4.164,1.379
		c-0.186,0.133-0.371,0.159-0.504-0.026l-0.689-0.902c-0.106-0.186-0.079-0.345,0.106-0.477c1.512-1.114,3.447-1.803,5.356-1.803
		c3.262,0,5.888,1.538,5.888,4.561c0,2.52-1.591,4.031-4.376,5.702c-2.042,1.22-4.853,3.447-5.384,6.073h9.415
		c0.292,0,0.345,0.106,0.345,0.371v1.035c0,0.265-0.053,0.371-0.345,0.371h-9.839C17.202,32.946,16.831,32.442,16.831,31.329z"/>
            <path fill="#E64117" d="M31.738,31.62c-0.159-0.132-0.186-0.265-0.08-0.424l0.663-0.955c0.133-0.186,0.318-0.212,0.558-0.053
		c1.325,0.875,2.917,1.272,4.349,1.272c2.997,0,4.562-1.485,4.562-3.818c0-1.883-1.883-3.262-4.137-3.262h-0.663
		c-0.398,0-0.716-0.132-0.716-0.583v-0.636c0-0.424,0.291-0.637,0.636-0.637h0.478c2.281,0,3.898-1.114,3.898-3.076
		c0-2.201-2.068-2.837-3.818-2.837c-1.485,0-3.05,0.451-4.243,1.246c-0.239,0.159-0.425,0.133-0.558-0.053l-0.609-0.875
		c-0.106-0.132-0.08-0.265,0.079-0.397c1.379-1.114,3.554-1.724,5.489-1.724c3.13,0,5.649,1.512,5.649,4.429
		c0,1.83-1.167,3.554-3.103,4.137v0.106c2.28,0.424,3.659,2.148,3.659,4.296c0,3.129-2.387,5.463-6.418,5.463
		C35.451,33.238,33.25,32.84,31.738,31.62z"/>
        </symbol>
        <symbol id="4-01">
            <path fill="none" stroke="#E64117" stroke-width="2" stroke-miterlimit="10" d="M45.434,29.37c0,7.458-6.04,13.5-13.5,13.5
		s-13.5-6.041-13.5-13.5c0-7.459,6.04-13.5,13.5-13.5S45.434,21.911,45.434,29.37z"/>
            <path fill="none" stroke="#E64117" stroke-width="2" stroke-linecap="round" stroke-miterlimit="10" d="M7.566,37.869
		c0,0,5.54,0,5.54-8.5c0-10.402,8.424-18.828,18.827-18.828"/>
            <circle fill="none" stroke="#E64117" stroke-width="2" stroke-miterlimit="10" cx="7.567" cy="37.87" r="5"/>
            <polyline fill="none" stroke="#E64117" stroke-width="2" stroke-linecap="round" stroke-miterlimit="10" points="31.934,29.387
		31.934,5.131 23.934,5.131 	"/>
        </symbol>
        <symbol id="5-01">
            <path fill="none" stroke="#E64117" stroke-width="2" stroke-miterlimit="10" d="M37.291,31.933c0,7.458-6.039,13.5-13.5,13.5
	c-7.459,0-13.5-6.041-13.5-13.5c0-7.459,6.041-13.5,13.5-13.5C31.252,18.432,37.291,24.474,37.291,31.933z"/>
            <path fill="none" stroke="#E64117" stroke-width="2" stroke-miterlimit="10" d="M31.791,10.432c0,4.42-3.578,8-8,8
	c-4.42,0-8-3.58-8-8s3.58-8,8-8C28.213,2.432,31.791,6.012,31.791,10.432z"/>
            <circle fill="none" stroke="#E64117" stroke-width="2" stroke-miterlimit="10" cx="13.051" cy="17.389" r="3.5"/>
            <circle fill="none" stroke="#E64117" stroke-width="2" stroke-miterlimit="10" cx="34.531" cy="17.389" r="3.5"/>
            <g>
                <circle fill="#E64117" cx="20.791" cy="10.432" r="2"/>
                <circle fill="#E64117" cx="26.791" cy="10.432" r="2"/>
            </g>
        </symbol>
        <symbol id="6-01">
            <path fill="none" stroke="#E64117" stroke-width="2" stroke-miterlimit="10" d="M43.083,24c0,4.79,0,19,0,19S15.64,43,9.931,43
	c0,0-4.848-12-4.848-19c0-10.498,8.502-19.001,19-19.001C34.584,4.999,43.083,13.502,43.083,24z"/>
            <g>
                <path fill="none" stroke="#E64117" stroke-width="2" stroke-miterlimit="10" d="M43.083,24h-18c-2.2,0-3.529,1.737-2.953,3.86
		l1.703,6.279C24.409,36.263,26.68,38,28.88,38h14.203"/>
            </g>
        </symbol>
        <symbol id="7-01">
            <path fill="none" stroke="#E64117" stroke-width="2" stroke-miterlimit="10" d="M38,41.565c0,0-7.507,2.434-14,2.434
	c-6.496,0-14-2.434-14-2.434V5.999h28V41.565z"/>
            <rect x="13.96" y="10.175" fill="none" stroke="#E64117" stroke-width="2" stroke-miterlimit="10" width="20.077" height="10.814"/>
            <g>

                <line fill="none" stroke="#E64117" stroke-width="2" stroke-linecap="round" stroke-miterlimit="10" x1="20.074" y1="40.363" x2="20.074" y2="24.264"/>

                <line fill="none" stroke="#E64117" stroke-width="2" stroke-linecap="round" stroke-miterlimit="10" x1="27.924" y1="40.363" x2="27.924" y2="24.264"/>
                <path fill="none" stroke="#E64117" stroke-width="2" stroke-linecap="round" stroke-miterlimit="10" d="M14.317,26.494
		c2.397,0.614,6.209,1.417,9.683,1.417s7.282-0.804,9.683-1.417"/>
                <path fill="none" stroke="#E64117" stroke-width="2" stroke-linecap="round" stroke-miterlimit="10" d="M14.317,30.988
		c2.397,0.616,6.209,1.419,9.683,1.419s7.282-0.804,9.683-1.419"/>
                <path fill="none" stroke="#E64117" stroke-width="2" stroke-linecap="round" stroke-miterlimit="10" d="M14.317,35.482
		c2.397,0.619,6.209,1.422,9.683,1.422s7.282-0.804,9.683-1.422"/>
            </g>
        </symbol>
        <symbol id="8-01">
            <circle fill="none" stroke="#E64117" stroke-width="2" stroke-linecap="round" stroke-linejoin="round" stroke-miterlimit="10" cx="24" cy="24" r="19"/>
            <g>
                <path fill="#E64117" d="M9.754,29H8.941c-0.214,0-0.327-0.043-0.327-0.299v-7.166c0-1.325,0.569-2.521,2.479-2.521h3.917
		c0.257,0,0.299,0.114,0.299,0.328v0.669c0,0.242-0.042,0.328-0.299,0.328h-3.917c-0.712,0-1.012,0.285-1.012,0.969v1.88h4.431
		c0.242,0,0.285,0.085,0.285,0.328v0.613c0,0.213-0.043,0.328-0.285,0.328h-4.431v4.245C10.081,28.957,9.996,29,9.754,29z"/>
                <path fill="#E64117" d="M16.329,19.769c0-0.541,0.214-0.769,0.769-0.769h3.277c1.823,0,3.077,1.168,3.077,2.849
		c0,1.14-0.628,2.022-1.567,2.393v0.071c0.783,0.228,1.012,0.727,1.196,1.396l0.827,3.005c0.027,0.1,0.042,0.285-0.2,0.285H22.64
		c-0.1,0-0.228-0.014-0.285-0.199l-0.726-2.693c-0.3-1.068-0.969-1.339-1.909-1.339h-1.881v3.932c0,0.256-0.085,0.299-0.327,0.299
		h-0.854c-0.214,0-0.328-0.043-0.328-0.299V19.769z M20.218,20.353h-2.364v3.148h2.251c1.353,0,1.865-0.755,1.865-1.596
		C21.97,21.293,21.686,20.353,20.218,20.353z"/>
                <path fill="#E64117" d="M31.359,29h-3.96c-1.923,0-2.479-1.183-2.479-2.507v-4.957c0-1.325,0.697-2.521,2.479-2.521h3.903
		c0.256,0,0.299,0.114,0.299,0.328v0.684c0,0.242-0.043,0.313-0.299,0.313h-3.903c-0.713,0-1.012,0.299-1.012,0.983v1.752h4.444
		c0.242,0,0.285,0.085,0.285,0.328V24c0,0.214-0.043,0.328-0.285,0.328h-4.444v2.365c0,0.57,0.285,0.969,1.012,0.969h3.96
		c0.256,0,0.299,0.085,0.299,0.328v0.684C31.658,28.886,31.615,29,31.359,29z"/>
                <path fill="#E64117" d="M39.087,29h-3.961c-1.923,0-2.479-1.183-2.479-2.507v-4.957c0-1.325,0.698-2.521,2.479-2.521h3.903
		c0.257,0,0.299,0.114,0.299,0.328v0.684c0,0.242-0.042,0.313-0.299,0.313h-3.903c-0.712,0-1.011,0.299-1.011,0.983v1.752h4.443
		c0.243,0,0.285,0.085,0.285,0.328V24c0,0.214-0.042,0.328-0.285,0.328h-4.443v2.365c0,0.57,0.285,0.969,1.011,0.969h3.961
		c0.256,0,0.299,0.085,0.299,0.328v0.684C39.386,28.886,39.343,29,39.087,29z"/>
            </g>
        </symbol>
        <symbol id="9-01">
            <g>
                <g>
                    <path fill="#E64117" d="M28.744,29.305c0.98,0.321,1.355,0.963,1.605,1.855l1.053,3.782c0.035,0.107,0.018,0.268-0.197,0.268
				h-0.98c-0.09,0-0.232-0.018-0.285-0.196l-0.963-3.46c-0.41-1.462-1.303-1.819-2.516-1.819H23.66v5.244
				c0,0.196-0.07,0.232-0.25,0.232h-0.908c-0.18,0-0.25-0.036-0.25-0.232V23.526c0-0.553,0.195-0.838,0.838-0.838h4.049
				c2.266,0,3.693,1.48,3.693,3.46c0,1.427-0.75,2.64-2.088,3.104V29.305z M26.979,23.972h-3.301v4.549h3.193
				c1.748,0,2.551-0.963,2.551-2.301C29.422,25.06,28.727,23.972,26.979,23.972z"/>
                </g>
                <g>
                    <path fill="#E64117" d="M24.48,29.733H21.68c-1.213,0-2.158,0.357-2.568,1.819l-0.945,3.46c-0.07,0.196-0.195,0.196-0.303,0.196
				H16.9c-0.143,0-0.178-0.089-0.178-0.161v-0.107c0.338-1.213,0.678-2.408,0.998-3.639c0.25-0.91,0.713-1.57,1.695-1.944
				c-1.393-0.518-2.088-1.712-2.088-3.157c0-1.98,1.41-3.496,3.674-3.496h4.051c0.641,0,0.838,0.268,0.838,0.82v11.47
				c0,0.178-0.072,0.214-0.25,0.214h-0.91c-0.178,0-0.25-0.036-0.25-0.214V29.733z M21.164,23.972c-1.785,0-2.463,1.16-2.463,2.283
				c0,1.356,0.82,2.283,2.568,2.283h3.211v-4.566H21.164z"/>
                </g>
            </g>
            <g>
                <path fill="none" stroke="#E64117" stroke-width="2" stroke-linecap="round" stroke-miterlimit="10" d="M37.127,29.665
			c0,1.444,0.787,12.321-13.127,12.321S10.873,31.109,10.873,29.665v-8.721c0-1.444,1.17-2.615,2.615-2.615h21.025
			c1.443,0,2.613,1.171,2.613,2.615V29.665z"/>
                <path fill="none" stroke="#E64117" stroke-width="2" stroke-linecap="round" stroke-miterlimit="10" d="M14.742,18.329v-3.057
			c0-5.114,4.145-9.259,9.258-9.259l0,0c5.113,0,9.26,4.145,9.26,9.259v3.057"/>
            </g>
        </symbol>
        <symbol id="10-01">
            <g>
                <g>
                    <path fill="none" stroke="#E64117" stroke-width="2" stroke-linecap="round" stroke-miterlimit="10" d="M5.148,28.781
			c0-0.347,0.059-0.549,0.549-0.549c0.492,0,7.947,0,7.947,0v8.263c0,0-7.859,0-8.148,0s-0.318,0.029-0.318-0.318
			C5.178,35.831,5.148,28.781,5.148,28.781z"/>
                    <path fill="none" stroke="#E64117" stroke-width="2" stroke-linecap="round" stroke-miterlimit="10" d="M13.693,26.865
			c0-0.193-0.021-0.453,0.268-0.453s25.568,0,26.377,0s1.498,0.207,1.764,0.838c0.244,0.586,0.75,3.13,0.75,5.114
			c0,1.983-0.607,4.334-0.723,4.911s-0.26,1.068-1.184,1.068c-0.926,0-26.465,0-26.781,0c-0.318,0-0.471-0.202-0.471-0.592
			C13.693,37.361,13.693,26.865,13.693,26.865z"/>
                    <g>
                        <path fill="#E64117" d="M40.369,32.203c0.096,0,0.174,0.079,0.174,0.175c0,0.097-0.078,0.176-0.174,0.176
				c-0.097,0-0.176-0.079-0.176-0.176C40.193,32.282,40.272,32.203,40.369,32.203 M40.369,31.203c-0.65,0-1.176,0.526-1.176,1.175
				c0,0.649,0.525,1.176,1.176,1.176c0.648,0,1.174-0.526,1.174-1.176C41.543,31.729,41.018,31.203,40.369,31.203L40.369,31.203z"/>
                    </g>
                    <path fill="none" stroke="#E64117" stroke-linecap="round" stroke-miterlimit="10" d="M38.086,26.412c0,0.573,0,1.39,0,1.676
			s0.121,0.511-0.307,0.756c-0.43,0.245-3.105,1.678-3.105,3.534s2.656,3.266,3.004,3.531s0.424,0.429,0.424,0.756
			c0,0.326,0,1.679,0,1.679"/>
                </g>
                <g>
                    <path fill="none" stroke="#E64117" stroke-width="2" stroke-linecap="round" stroke-miterlimit="10" d="M36.686,19.471
			c0,0.271-0.041,0.521-0.625,0.521s-7.855,0-7.855,0v-8.586c0,0,7.771,0.146,8.105,0.146s0.385,0.188,0.385,0.386
			C36.695,12.136,36.686,19.471,36.686,19.471z"/>
                    <path fill="none" stroke="#E64117" stroke-width="2" stroke-linecap="round" stroke-miterlimit="10" d="M28.205,21.2
			c0,0.354-0.105,0.501-0.438,0.501c-0.334,0-13.984-0.146-14.297-0.146s-0.395,0-0.395-0.354c0-0.354,0-1.625,0-1.625h-0.23
			c0,0-1.541-1.353-1.541-4s1.938-5.919,6.064-5.919c4.125,0,10.293,0,10.521,0c0.23,0,0.377,0.083,0.377,0.374
			c0,0.293-0.063,11.087-0.063,11.087V21.2z"/>
                    <g>
                        <path fill="#E64117" d="M16.264,13.533v4.029c-0.675-0.343-1.396-0.975-1.396-2.113C14.867,14.328,15.597,13.791,16.264,13.533
				 M17.264,12.302c0,0-3.396,0.167-3.396,3.147c0,2.979,3.396,3.48,3.396,3.48V12.302L17.264,12.302z"/>
                    </g>
                    <path fill="none" stroke="#E64117" stroke-linecap="round" stroke-miterlimit="10" d="M20.16,21.639V19.2
			c0,0,1.793-1.415,1.793-3.625s-1.793-3.689-1.793-3.689V9.656"/>
                    <path fill="none" stroke="#E64117" stroke-width="2" stroke-linecap="round" stroke-miterlimit="10" d="M13.076,21.158
			c0,0-0.48,0-0.648,0c-0.164,0-0.248-0.104-0.248-0.312c0-0.209,0-0.688,0-0.854c0-0.167,0.063-0.292,0.291-0.292s0.605,0,0.605,0"
                    />
                </g>
            </g>
        </symbol>
        <symbol id="11-01">
            <path fill="none" stroke="#E54425" stroke-width="2" stroke-linecap="round" stroke-linejoin="round" stroke-miterlimit="10" d="
	M36.603,37.359c0.134,0.943-0.524,1.815-1.466,1.949L12.688,42.5c-0.943,0.131-1.815-0.523-1.947-1.462L6.317,9.917
	C6.184,8.977,6.839,8.102,7.78,7.967l22.449-3.19c0.943-0.131,1.814,0.524,1.947,1.462L36.603,37.359z"/>
            <path fill="#F04E23" d="M25.857,43.768c0.12,0.83-0.462,1.602-1.294,1.721c-0.832,0.121-1.604-0.459-1.722-1.294
	s0.461-1.605,1.293-1.72C24.968,42.354,25.74,42.934,25.857,43.768z"/>
            <g>
                <g>
                    <path fill="#F04E23" d="M28.735,32.087c0.014,0,0.025,0,0.035,0.001c0.046,0.201-0.021,0.721-0.442,1.075
			c-0.249,0.21-0.599,0.322-1.034,0.439c0.114-0.344,0.237-0.641,0.461-0.939C28.05,32.267,28.47,32.087,28.735,32.087
			 M28.735,31.087c-0.581,0-1.298,0.328-1.782,0.979c-0.802,1.07-0.632,2.092-1.524,3.264c1.417-0.801,2.656-0.653,3.544-1.401
			c0.925-0.776,1.019-2.116,0.48-2.602C29.275,31.166,29.022,31.087,28.735,31.087L28.735,31.087z"/>
                </g>
                <path fill="#FFFFFF" stroke="#E54425" stroke-linecap="round" stroke-linejoin="round" stroke-miterlimit="10" d="M37.699,24.422
		c-3.896,4.325-7.568,7.371-8.203,6.797c-0.636-0.57,2.009-4.542,5.904-8.867c3.898-4.324,7.569-7.37,8.204-6.797
		C44.239,16.126,41.594,20.098,37.699,24.422z"/>
            </g>
            <path fill="none" stroke="#E54425" stroke-linecap="round" stroke-linejoin="round" stroke-miterlimit="10" d="M24.257,35.419
	c-0.853,0.003-1.702,0.58-2.672-0.181c-0.629-0.492-0.665,1.643-1.761,0.563c-0.329-0.327-0.237-1.482-0.76-1.46
	c-0.628,0.03-0.356,2.14-0.379,2.614c-0.026,0.587-0.134,2.121-0.956,1.566c-0.723-0.488-1.359-2.202-1.644-2.99
	c-0.302-0.838-1.239-5.743-2.784-4.231c-0.744,0.73-0.806,2.195-0.888,3.168c-0.041,0.494-0.008,2.219-0.003,2.914"/>
            <g>
                <polygon fill="#F04E23" points="10.99,21.531 11.82,21.41 10.981,15.657 14.222,15.187 14.111,14.444 10.047,15.034 	"/>
                <path fill="#F04E23" d="M17.042,13.948c-2.24,0.326-2.663,1.02-2.271,3.721c0.393,2.693,0.993,3.237,3.215,2.914
		c2.226-0.322,2.646-1.019,2.255-3.71C19.848,14.174,19.252,13.627,17.042,13.948z M17.889,19.839
		c-1.685,0.247-1.96-0.034-2.291-2.292c-0.331-2.289-0.158-2.609,1.542-2.855c1.668-0.242,1.943,0.037,2.274,2.303
		C19.743,19.251,19.558,19.595,17.889,19.839z"/>
                <path fill="#F04E23" d="M25.309,17.214c0.181,1.246-0.097,1.561-1.561,1.773c-1.378,0.199-1.829-0.074-2.15-2.294
		c-0.326-2.238,0.047-2.659,1.402-2.854c1.475-0.215,1.63,0.108,1.901,1.164l0.013,0.054l0.809-0.119l-0.013-0.063
		c-0.309-1.497-0.77-2.074-2.816-1.776s-2.505,1.097-2.125,3.717c0.408,2.797,1.165,3.195,3.089,2.915
		c1.984-0.289,2.514-0.905,2.263-2.634l-0.011-0.062l-0.811,0.12L25.309,17.214z"/>
                <polygon fill="#F04E23" points="25.498,12.786 25.607,13.528 27.669,13.229 28.507,18.982 29.333,18.862 28.497,13.108
		30.56,12.809 30.451,12.069 	"/>
            </g>
        </symbol>
    </defs>
</svg>