<svg width="0" height="0" style="position:absolute">
    <defs>
        <symbol id="1-01">
            <path fill="none" stroke="#E64117" stroke-width="2" stroke-miterlimit="10" d="M39,11.371c0,0-0.011,1.283-0.016,5
                c-0.002,1.81-0.117,8.46-0.314,9.629c-0.189,1.166-1.197,6.495-5.663,10.849c-5.286,5.147-9.041,6.524-9.041,6.524
                s-3.717-1.373-8.98-6.519c-4.457-4.352-5.461-9.679-5.651-10.85c-0.195-1.166-0.31-7.82-0.316-9.629c-0.003-3.714-0.018-5-0.018-5
                s6.108-6.748,15.07-6.748C33.031,4.628,39,11.371,39,11.371z"/>
            <path fill="none" stroke="#E64117" stroke-width="2" stroke-miterlimit="10" d="M24.07,8.158c5.423,0,9.636,3.135,11.395,4.694
                c-0.004,0.792-0.008,1.935-0.012,3.515c-0.002,2.254-0.131,8.113-0.266,9.062c-0.199,1.219-1.125,5.464-4.644,8.892
                c-2.879,2.804-5.229,4.354-6.569,5.117c-1.34-0.766-3.667-2.315-6.522-5.108c-3.511-3.425-4.437-7.675-4.633-8.881
                c-0.134-0.944-0.262-6.671-0.271-9.076c-0.002-1.565-0.006-2.704-0.011-3.497C14.346,11.307,18.642,8.158,24.07,8.158"/>
        </symbol>
        <symbol id="6-01">
            <circle fill="none" stroke="#E64117" stroke-width="2" stroke-linecap="round" stroke-linejoin="round" stroke-miterlimit="10" cx="24" cy="24" r="19"/>
            <g>
                <path fill="#E64117" d="M12.439,17.878c0-0.7,0.261-1.02,1.021-1.02h4.581c2.54,0,4.221,1.64,4.221,3.941
                    c0,1.6-0.86,2.9-2.261,3.42v0.08c1.101,0.34,1.48,1.041,1.741,2.021l1.16,4.221c0.04,0.14,0.06,0.36-0.24,0.36h-1.32
                    c-0.12,0-0.3-0.02-0.36-0.26l-1.061-3.821c-0.439-1.56-1.399-1.94-2.74-1.94h-2.86v5.682c0,0.28-0.101,0.34-0.38,0.34h-1.12
                    c-0.261,0-0.381-0.06-0.381-0.34V17.878z M17.821,18.559H14.34v4.721h3.341c1.94,0,2.741-1.08,2.741-2.4
                    C20.422,19.819,19.842,18.559,17.821,18.559z"/>
                <path fill="#E64117" d="M24.939,17.238c0-0.28,0.12-0.34,0.34-0.34h1.2c0.24,0,0.34,0.06,0.34,0.34v7.522
                    c0,3.261,0.601,4.741,4.281,4.741c0.44,0,1.5-0.02,2.66-0.24V17.238c0-0.28,0.101-0.34,0.341-0.34h1.18
                    c0.24,0,0.28,0.06,0.28,0.34v11.903c0,0.94-0.34,1.56-1.48,1.76c-1,0.18-2.221,0.24-3.061,0.24c-4.44,0-6.062-1.5-6.062-6.302
                    L24.939,17.238z"/>
            </g>
        </symbol>
        <symbol id="11-01">
            <polygon fill="none" stroke="#E64117" stroke-width="2" stroke-linecap="round" stroke-miterlimit="10" points="38.198,43
		9.963,43 9.963,5 28.237,5 38.198,14.96 	"/>
            <polyline fill="none" stroke="#E64117" stroke-width="2" stroke-miterlimit="10" points="38.237,15 28.237,15 28.237,5 	"/>
            <g>

                <circle fill="none" stroke="#E64117" stroke-width="2" stroke-linecap="round" stroke-miterlimit="10" cx="24.5" cy="31.751" r="7.5"/>

                <polyline fill="none" stroke="#E64117" stroke-width="2" stroke-linecap="round" stroke-linejoin="round" stroke-miterlimit="10" points="
			25.236,24.25 24.5,31.751 31.89,33.024 		"/>

                <line fill="none" stroke="#E64117" stroke-width="2" stroke-linecap="round" stroke-miterlimit="10" x1="27.496" y1="38.085" x2="24.5" y2="31.751"/>
            </g>
            <line fill="none" stroke="#E64117" stroke-width="2" stroke-linejoin="round" stroke-miterlimit="10" x1="13" y1="11.042" x2="24" y2="11.042"/>
            <line fill="none" stroke="#E64117" stroke-width="2" stroke-linejoin="round" stroke-miterlimit="10" x1="13" y1="15" x2="24" y2="15"/>
            <line fill="none" stroke="#E64117" stroke-width="2" stroke-linejoin="round" stroke-miterlimit="10" x1="13.071" y1="18.875" x2="34.938" y2="18.875"/>
        </symbol>
        <symbol id="13-01">

            <rect x="5" y="9" fill-rule="evenodd" clip-rule="evenodd" fill="none" stroke="#E64117" stroke-width="2" stroke-linecap="round" stroke-miterlimit="10" width="38" height="30"/>
            <g>

                <line fill="none" stroke="#E64117" stroke-width="2" stroke-linejoin="round" stroke-miterlimit="10" x1="39.947" y1="11.796" x2="34.641" y2="17.101"/>

                <line fill="none" stroke="#E64117" stroke-width="2" stroke-linejoin="round" stroke-miterlimit="10" x1="39.947" y1="17.101" x2="34.641" y2="11.796"/>
            </g>

            <line fill="none" stroke="#E64117" stroke-width="2" stroke-linejoin="round" stroke-miterlimit="10" x1="26.646" y1="14.448" x2="31.955" y2="14.448"/>

            <line fill="none" stroke="#E64117" stroke-width="2" stroke-linejoin="round" stroke-miterlimit="10" x1="5" y1="20" x2="43" y2="20"/>

            <line fill="none" stroke="#E64117" stroke-width="2" stroke-linejoin="round" stroke-miterlimit="10" x1="8.254" y1="25" x2="14.254" y2="25"/>

            <line fill="none" stroke="#E64117" stroke-width="2" stroke-linejoin="round" stroke-miterlimit="10" x1="8.254" y1="29" x2="14.254" y2="29"/>

            <line fill="none" stroke="#E64117" stroke-width="2" stroke-linejoin="round" stroke-miterlimit="10" x1="8.254" y1="33" x2="14.254" y2="33"/>

            <line fill="none" stroke="#E64117" stroke-width="2" stroke-linejoin="round" stroke-miterlimit="10" x1="17" y1="20" x2="17" y2="39"/>
        </symbol>
        <symbol id="16-01">
            <g>
                <g>
                    <line fill="none" stroke="#E64117" stroke-width="2" stroke-miterlimit="10" x1="12.977" y1="27" x2="12.977" y2="24.08"/>

                    <line fill="none" stroke="#E64117" stroke-width="2" stroke-miterlimit="10" stroke-dasharray="5.3866,5.3866" x1="12.977" y1="18.693" x2="12.977" y2="10.613"/>
                    <polyline fill="none" stroke="#E64117" stroke-width="2" stroke-miterlimit="10" points="12.977,7.919 12.977,5 15.896,5 			"/>

                    <line fill="none" stroke="#E64117" stroke-width="2" stroke-miterlimit="10" stroke-dasharray="4.832,4.832" x1="20.729" y1="5" x2="37.641" y2="5"/>
                    <polyline fill="none" stroke="#E64117" stroke-width="2" stroke-miterlimit="10" points="40.057,5 42.977,5 42.977,7.919 			"/>

                    <line fill="none" stroke="#E64117" stroke-width="2" stroke-miterlimit="10" stroke-dasharray="4.832,4.832" x1="42.977" y1="12.751" x2="42.977" y2="29.664"/>
                    <polyline fill="none" stroke="#E64117" stroke-width="2" stroke-miterlimit="10" points="42.977,32.08 42.977,35 40.057,35
				"/>

                    <line fill="none" stroke="#E64117" stroke-width="2" stroke-miterlimit="10" stroke-dasharray="5.3866,5.3866" x1="34.67" y1="35" x2="26.59" y2="35"/>
                    <line fill="none" stroke="#E64117" stroke-width="2" stroke-miterlimit="10" x1="23.896" y1="35" x2="20.977" y2="35"/>
                </g>
            </g>
            <rect x="4.977" y="27" fill="none" stroke="#E64117" stroke-width="2" stroke-miterlimit="10" width="16" height="16"/>

            <line fill="none" stroke="#E64117" stroke-width="2" stroke-linecap="round" stroke-miterlimit="10" x1="30.976" y1="17.151" x2="21.053" y2="27.075"/>
            <polyline fill="none" stroke="#E64117" stroke-width="2" stroke-linecap="round" stroke-miterlimit="10" points="22.143,17.152
		30.976,17.151 30.979,25.989 	"/>
        </symbol>
        <symbol id="20-01">
            <path fill="none" stroke="#E64117" stroke-width="1.8239" stroke-miterlimit="10" d="M43,18.074v19.645
		C43,39.531,41.53,41,39.717,41H8.282C6.47,41,5,39.531,5,37.719V18.074"/>
            <path fill="none" stroke="#E64117" stroke-width="1.8239" stroke-miterlimit="10" d="M43,22.012c0,1.811-1.47,3.283-3.283,3.283
		H8.282C6.47,25.295,5,23.823,5,22.012v-11.73C5,8.469,6.47,7,8.282,7h31.435C41.53,7,43,8.469,43,10.282V22.012z"/>
            <g>
                <path fill="#E64117" d="M10.208,30.641c0.559,0,1.261,0.119,1.732,0.332c0.087,0.047,0.103,0.078,0.063,0.18l-0.189,0.537
			c-0.04,0.109-0.07,0.109-0.149,0.086c-0.521-0.173-1.048-0.268-1.474-0.268c-0.543,0-0.779,0.26-0.779,0.567
			c0,0.386,0.355,0.575,1.205,0.921c0.906,0.372,1.702,0.733,1.702,1.732c0,1.096-0.859,1.607-1.978,1.607
			c-0.655,0-1.434-0.102-2.05-0.44c-0.07-0.031-0.095-0.087-0.047-0.188l0.236-0.536c0.041-0.087,0.088-0.102,0.174-0.071
			c0.503,0.213,1.072,0.37,1.568,0.37c0.796,0,1.095-0.308,1.095-0.717c0-0.433-0.339-0.645-1.088-0.938
			c-1.142-0.44-1.803-0.843-1.803-1.669C8.428,31.271,9.01,30.641,10.208,30.641z"/>
                <path fill="#E64117" d="M16.943,36.25h-2.245c-1.103,0-1.402-0.686-1.402-1.41v-2.694c0-0.741,0.387-1.418,1.402-1.418h2.197
			c0.134,0,0.157,0.055,0.157,0.18v0.497c0,0.134-0.023,0.173-0.157,0.173H14.8c-0.401,0-0.542,0.182-0.542,0.521v0.826h2.379
			c0.133,0,0.156,0.047,0.156,0.189v0.433c0,0.125-0.023,0.182-0.156,0.182h-2.379v1.15c0,0.338,0.164,0.512,0.542,0.512h2.144
			c0.142,0,0.166,0.047,0.166,0.189v0.487C17.109,36.187,17.076,36.25,16.943,36.25z"/>
                <path fill="#E64117" d="M22.474,36.085c0.023,0.071-0.007,0.166-0.102,0.166h-0.701c-0.079,0-0.182-0.009-0.22-0.126l-0.379-1.457
			c-0.157-0.559-0.418-0.717-0.978-0.717h-0.93v2.135c0,0.142-0.039,0.166-0.181,0.166H18.37c-0.118,0-0.182-0.033-0.182-0.166
			v-4.916c0-0.308,0.11-0.45,0.44-0.45h1.861c1.056,0,1.74,0.646,1.74,1.593c0,0.613-0.331,1.103-0.812,1.299v0.031
			c0.37,0.159,0.52,0.433,0.622,0.812L22.474,36.085z M20.396,31.587h-1.222v1.559h1.166c0.638,0,0.913-0.354,0.913-0.787
			C21.253,32.044,21.104,31.587,20.396,31.587z"/>
                <path fill="#E64117" d="M25.335,35.227h0.046l0.363-1.236l1.032-3.153c0.031-0.102,0.086-0.109,0.188-0.109h0.749
			c0.08,0,0.095,0.055,0.071,0.118l-1.741,5.042c-0.095,0.282-0.205,0.354-0.457,0.362H25.16c-0.268,0-0.394-0.063-0.504-0.362
			l-1.733-5.042c-0.023-0.063,0-0.118,0.079-0.118h0.757c0.109,0,0.149,0.038,0.173,0.118l1.009,3.127L25.335,35.227z"/>
                <path fill="#E64117" d="M29.54,36.25h-0.599c-0.126,0-0.181-0.033-0.181-0.166v-5.184c0-0.135,0.055-0.166,0.181-0.166h0.599
			c0.142,0,0.189,0.024,0.189,0.166v5.184C29.729,36.227,29.682,36.25,29.54,36.25z"/>
                <path fill="#E64117" d="M34.714,35.179c0.144-0.063,0.19,0,0.221,0.078l0.206,0.45c0.07,0.148,0.038,0.188-0.041,0.236
			c-0.527,0.315-1.181,0.393-1.739,0.393c-1.585,0-2.419-0.937-2.419-2.779c0-1.742,1-2.899,2.48-2.899
			c0.474,0,0.978,0.062,1.489,0.331c0.088,0.038,0.118,0.086,0.056,0.228l-0.221,0.457c-0.038,0.102-0.072,0.134-0.181,0.087
			c-0.348-0.134-0.702-0.22-1.104-0.22c-1.048,0-1.521,0.961-1.521,2.017c0,1.046,0.354,1.89,1.561,1.89
			C33.974,35.447,34.368,35.313,34.714,35.179z"/>
                <path fill="#E64117" d="M39.715,36.25h-2.247c-1.103,0-1.401-0.686-1.401-1.41v-2.694c0-0.741,0.386-1.418,1.401-1.418h2.199
			c0.134,0,0.157,0.055,0.157,0.18v0.497c0,0.134-0.023,0.173-0.157,0.173h-2.096c-0.401,0-0.543,0.182-0.543,0.521v0.826h2.378
			c0.135,0,0.158,0.047,0.158,0.189v0.433c0,0.125-0.023,0.182-0.158,0.182h-2.378v1.15c0,0.338,0.165,0.512,0.543,0.512h2.144
			c0.142,0,0.166,0.047,0.166,0.189v0.487C39.881,36.187,39.848,36.25,39.715,36.25z"/>
            </g>
            <g>
                <path fill="#E64117" d="M11.848,21.37c-1.098,0-2.528-0.173-3.669-0.751c-0.087-0.043-0.131-0.145-0.058-0.289l0.347-0.766
			c0.043-0.102,0.13-0.13,0.23-0.087c0.997,0.448,2.139,0.693,3.02,0.693c1.459,0,2.326-0.578,2.326-1.604
			c0-0.997-0.81-1.474-2.384-2.051c-2.124-0.78-3.192-1.459-3.192-2.933c0-1.574,1.126-2.658,3.207-2.658
			c0.953,0,2.109,0.173,3.019,0.578c0.116,0.058,0.145,0.116,0.102,0.246l-0.317,0.809c-0.059,0.13-0.102,0.13-0.188,0.101
			c-0.982-0.375-1.893-0.534-2.658-0.534c-1.155,0-1.82,0.578-1.82,1.357c0,0.954,0.823,1.3,2.543,1.979
			c1.604,0.607,3.048,1.271,3.048,3.048C15.401,20.431,13.855,21.37,11.848,21.37z"/>
                <path fill="#E64117" d="M23.348,21.21h-4.017c-1.878,0-2.441-1.141-2.441-2.47v-5.172c0-1.329,0.679-2.485,2.441-2.485h3.943
			c0.217,0,0.261,0.101,0.261,0.303v0.607c0,0.217-0.044,0.289-0.261,0.289h-3.929c-0.794,0-1.142,0.347-1.142,1.098v1.878h4.594
			c0.217,0,0.261,0.086,0.261,0.303v0.549c0,0.188-0.044,0.289-0.261,0.289h-4.594v2.514c0,0.65,0.318,1.083,1.142,1.083h4.002
			c0.23,0,0.274,0.087,0.274,0.303v0.607C23.622,21.11,23.578,21.21,23.348,21.21z"/>
                <path fill="#E64117" d="M31.784,21.21h-4.132c-1.835,0-2.398-1.141-2.398-2.47v-7.411c0-0.217,0.087-0.26,0.26-0.26h0.781
			c0.202,0,0.274,0.043,0.274,0.26v7.498c0,0.794,0.375,1.185,1.198,1.185h4.017c0.173,0,0.202,0.072,0.202,0.231v0.722
			C31.986,21.138,31.957,21.21,31.784,21.21z"/>
                <path fill="#E64117" d="M34.254,21.21h-0.723c-0.202,0-0.303-0.043-0.303-0.274v-7.368c0-1.329,0.577-2.485,2.441-2.485h3.973
			c0.231,0,0.274,0.101,0.274,0.303v0.592c0,0.231-0.043,0.304-0.274,0.304h-3.958c-0.795,0-1.142,0.332-1.142,1.083v2.022h4.565
			c0.217,0,0.26,0.072,0.26,0.289v0.563c0,0.188-0.043,0.303-0.26,0.303h-4.565v4.392C34.543,21.167,34.471,21.21,34.254,21.21z"/>
            </g>
        </symbol>
        <symbol id="21-01">
            <path fill="none" stroke="#E64117" stroke-width="2" stroke-linecap="round" stroke-miterlimit="10" d="M10,21v19.658
		c0,0.123,0.012,0.231,0.022,0.342h27.957C37.989,40.889,38,40.78,38,40.657V21H10z"/>
            <path fill="none" stroke="#E64117" stroke-width="2" stroke-miterlimit="10" d="M13.75,21.372V15.25C13.75,9.588,18.339,5,24,5l0,0
		c5.661,0,10.25,4.589,10.25,10.25v6.122"/>
            <circle fill="none" stroke="#E64117" stroke-width="2" stroke-linecap="round" stroke-miterlimit="10" cx="24" cy="29" r="3"/>

            <line fill="none" stroke="#E64117" stroke-width="2" stroke-linecap="round" stroke-miterlimit="10" x1="24" y1="32" x2="24" y2="37"/>
        </symbol>
        <symbol id="23-01">

            <circle fill="none" stroke="#E64117" stroke-width="2" stroke-linecap="round" stroke-linejoin="round" stroke-miterlimit="10" cx="31.081" cy="16.919" r="12"/>

            <line fill="#FFFFFF" stroke="#E64117" stroke-width="2" stroke-linecap="round" stroke-linejoin="round" stroke-miterlimit="10" x1="22.597" y1="25.403" x2="19.062" y2="28.939"/>

            <rect x="10.051" y="26.449" transform="matrix(0.7071 0.7071 -0.7071 0.7071 28.5337 1.0069)" fill="none" stroke="#E64117" stroke-width="2" stroke-linecap="round" stroke-linejoin="round" stroke-miterlimit="10" width="6" height="17"/>
        </symbol>
        <symbol id="26-01">

            <rect x="25.475" y="8.744" transform="matrix(0.7071 0.7071 -0.7071 0.7071 21.115 -18.5481)" fill="none" stroke="#E64117" stroke-width="2" stroke-linecap="round" stroke-miterlimit="10" width="14.942" height="14.939"/>
            <path fill="none" stroke="#E64117" stroke-width="2" stroke-linecap="round" stroke-linejoin="round" stroke-miterlimit="10" d="
		M13.494,20.734l6.222-6.225c0.301-0.299,0.574-0.289,0.954,0.056l13.967,13.964c0.281,0.282,0.193,0.625,0.095,0.833l-6.33,6.332"
            />

            <path fill-rule="evenodd" clip-rule="evenodd" fill="none" stroke="#E64117" stroke-width="2" stroke-linecap="round" stroke-linejoin="round" stroke-miterlimit="10" d="
		M28.396,35.701l-3.121-3.092c-0.027-5.283-3.062-8.867-8.613-8.697l-3.155-3.165l-3.552,3.526
		c-3.741,3.71-4.43,10.523,0.032,14.986c4.466,4.466,11.044,3.798,14.956-0.107L28.396,35.701z"/>

            <line fill="none" stroke="#E64117" stroke-width="2" stroke-linecap="round" stroke-linejoin="round" stroke-miterlimit="10" x1="33.066" y1="26.959" x2="22.202" y2="16.098"/>
            <g>
                <path fill="#E64117" d="M14.139,27.879l7.184,7.183l-0.23,0.239c-1.269,1.286-2.645,1.556-3.575,1.556
			c-1.3,0-2.612-0.53-3.509-1.415c-1.037-1.026-1.655-2.456-1.654-3.823c0.002-1.309,0.551-2.513,1.631-3.578
			c0.019-0.018,0.036-0.036,0.054-0.055L14.139,27.879 M14.095,25.006l-1.514,1.61c-3.501,3.45-2.392,7.86,0.02,10.247
			c1.252,1.235,3.046,1.993,4.916,1.993c1.724,0,3.512-0.644,4.999-2.151l1.608-1.67L14.095,25.006L14.095,25.006z"/>
            </g>

            <line fill="none" stroke="#E64117" stroke-width="2" stroke-linecap="round" stroke-linejoin="round" stroke-miterlimit="10" x1="30.058" y1="13.324" x2="31.472" y2="14.738"/>

            <line fill="none" stroke="#E64117" stroke-width="2" stroke-linecap="round" stroke-linejoin="round" stroke-miterlimit="10" x1="34.301" y1="17.567" x2="35.715" y2="18.981"/>
        </symbol>
        <symbol id="29-01">
            <path fill="none" stroke="#E64117" stroke-width="2" stroke-miterlimit="10" d="M26.397,11.211V8.944
		c1.253-0.109,1.597-0.497,1.597-1.695c0-0.592,0.013-0.792,0-1.384c0-0.305-0.083-0.578-0.219-0.785l-0.041-0.055L27.458,4.75
		c-0.206-0.165-0.479-0.25-0.799-0.25h-5.317c-0.799,0.015-1.322,0.538-1.334,1.339c-0.018,0.565,0,0.749,0,1.316
		c0,1.293,0.316,1.65,1.595,1.803v2.254"/>
            <path fill="none" stroke="#E64117" stroke-width="2" stroke-linecap="round" stroke-linejoin="round" stroke-miterlimit="10" d="
		M40,27.5c0,8.834-7.162,16.001-16.002,16.001C15.164,43.501,8,36.334,8,27.5c0-8.839,7.164-16.002,15.998-16.002
		C32.838,11.498,40,18.661,40,27.5z"/>
            <path fill="#E64117" d="M25.034,30.375c-1.588,0.571-3.344-0.251-3.913-1.843c-0.572-1.586,0.26-3.338,1.844-3.91
		c1.589-0.569,3.341,0.255,3.916,1.842C27.446,28.053,26.62,29.809,25.034,30.375z"/>
            <g>

                <line fill="#FFFFFF" stroke="#E64117" stroke-width="2" stroke-linecap="round" stroke-miterlimit="10" x1="24" y1="15.632" x2="24" y2="16.71"/>

                <line fill="#FFFFFF" stroke="#E64117" stroke-width="2" stroke-linecap="round" stroke-miterlimit="10" x1="24" y1="38.289" x2="24" y2="39.367"/>
            </g>
            <g>

                <line fill="#FFFFFF" stroke="#E64117" stroke-width="2" stroke-linecap="round" stroke-miterlimit="10" x1="32.391" y1="19.107" x2="31.63" y2="19.871"/>

                <line fill="#FFFFFF" stroke="#E64117" stroke-width="2" stroke-linecap="round" stroke-miterlimit="10" x1="16.372" y1="35.131" x2="15.608" y2="35.892"/>
            </g>
            <g>

                <line fill="#FFFFFF" stroke="#E64117" stroke-width="2" stroke-linecap="round" stroke-miterlimit="10" x1="35.868" y1="27.5" x2="34.788" y2="27.5"/>

                <line fill="#FFFFFF" stroke="#E64117" stroke-width="2" stroke-linecap="round" stroke-miterlimit="10" x1="13.211" y1="27.5" x2="12.131" y2="27.5"/>
            </g>
            <g>

                <line fill="#FFFFFF" stroke="#E64117" stroke-width="2" stroke-linecap="round" stroke-miterlimit="10" x1="32.391" y1="35.893" x2="31.63" y2="35.132"/>

                <line fill="#FFFFFF" stroke="#E64117" stroke-width="2" stroke-linecap="round" stroke-miterlimit="10" x1="16.368" y1="19.871" x2="15.608" y2="19.106"/>
            </g>

            <line fill="none" stroke="#E64117" stroke-width="2" stroke-linecap="round" stroke-linejoin="round" stroke-miterlimit="10" x1="24" y1="27.5" x2="34.001" y2="23.333"/>
        </symbol>
    </defs>
</svg>